<svg width="160" height="160" viewBox="0 0 160 160" fill="none" xmlns="http://www.w3.org/2000/svg">
<g clip-path="url(#clip0_643_32)">
<rect width="160" height="160" rx="20" fill="#363D52"/>
<rect width="7.92763" height="36.0729" transform="matrix(0.999266 -0.0383108 0.0479755 0.998848 76.3396 72.3038)" fill="#414042"/>
<rect width="7.01216" height="36.0889" transform="matrix(0.99786 0.0653821 -0.0818107 0.996648 78.3328 102.618)" fill="#414042"/>
<path d="M91.1728 137.756L94.101 102.2L107 94.5L112.5 81.5L106.5 81.9082L103.5 91L93.1694 95L91.6047 82.9082L83.105 81.9082L82.3366 139.042L91.1728 137.756Z" fill="#414042"/>
<path d="M78 106.908L77.5 90.4082L84 106.908M78 106.908L75 138.908H83.5M78 106.908L83.5 138.908M78 106.908H84M83.5 138.908L84 106.908M83.5 138.908C85.8333 138.575 90.7 137.808 91.5 137.408L94 101.908M83.5 138.908L94 101.908M84 106.908L94 101.908M84 106.908C83.8492 106.525 83.6038 94.7487 83.5 88.9082M94 101.908L83.5 88.9082M94 101.908L107 94.5M94 101.908L93.1776 95M83.5 88.9082L91.5 80.9082L93.1776 95M107 94.5L93.1776 95M107 94.5L103.5 91M107 94.5L112 82.5H107.5M107 94.5L107.5 82.5M93.1776 95L103.5 91M103.5 91L107.5 82.5" stroke="#CDCDCD"/>
<path d="M72.3557 89.9664L99.1745 86.4899L100.613 85.4967L117.054 49.7383L101.161 11L66.8926 26.396L72.3557 89.9664Z" fill="#478CBF"/>
<path d="M123.013 33.8456L101.161 11L117.054 49.7383L100.613 85.4966L120.034 72.0872L117.054 49.7383L123.013 33.8456Z" fill="#478CBF"/>
<path d="M58.4497 76.5571L72.3558 89.9664L66.8927 26.396L101.161 11L76.3289 13.9799L66.8927 26.396L51.0001 44.2752L58.4497 76.5571Z" fill="#478CBF"/>
<path d="M72.3557 89.9664L99.1745 86.4899L100.613 85.4966M72.3557 89.9664L58.4497 76.557L51 44.2752L66.8926 26.396M72.3557 89.9664L66.8926 26.396M66.8926 26.396L76.3289 13.9799L101.161 11M66.8926 26.396L117.054 49.7383M66.8926 26.396L101.161 11M101.161 11L123.013 33.8456L117.054 49.7383M101.161 11L117.054 49.7383M117.054 49.7383L120.034 72.0873L100.613 85.4966M117.054 49.7383L100.613 85.4966" stroke="#CDCDCD"/>
<path d="M128.685 76.1678L134.148 52.3289L119.248 41.4027L100.376 27L108.819 54.3154L122.725 83.1208L128.685 76.1678Z" fill="#478CBF"/>
<path d="M104.846 86.1007L122.725 83.1208L108.819 54.3154L85.4765 74.1812L104.846 86.1007Z" fill="#478CBF"/>
<path d="M82.0001 41.4027L85.4766 74.1812L108.819 54.3154L100.376 27L82.0001 41.4027Z" fill="#478CBF"/>
<path d="M134.148 52.3289L128.685 76.1678L122.725 83.1208M134.148 52.3289L119.248 41.4027L100.376 27M134.148 52.3289L108.819 54.3154M122.725 83.1208L104.846 86.1007M122.725 83.1208L108.819 54.3154M104.846 86.1007L85.4766 74.1812M104.846 86.1007L108.819 54.3154M85.4766 74.1812L82.0001 41.4027L100.376 27M85.4766 74.1812L108.819 54.3154M100.376 27L108.819 54.3154" stroke="#CDCDCD"/>
<mask id="mask0_643_32" style="mask-type:alpha" maskUnits="userSpaceOnUse" x="49" y="102" width="67" height="63">
<path fill-rule="evenodd" clip-rule="evenodd" d="M69.3255 164.087C57.9244 158.968 49.9998 147.646 49.9998 134.5C49.9998 116.551 64.7744 102 82.9998 102C101.225 102 116 116.551 116 134.5C116 142.584 113.003 149.979 108.043 155.666L97.8377 144.536C99.83 141.694 100.999 138.234 100.999 134.5C100.999 124.835 93.1642 117 83.4992 117C73.8342 117 65.9992 124.835 65.9992 134.5C65.9992 140.354 68.8732 145.536 73.2872 148.713L69.3255 164.087Z" fill="#D9D9D9"/>
</mask>
<g mask="url(#mask0_643_32)">
<path d="M42.4998 123L121 145" stroke="white" stroke-width="2"/>
<path d="M122.5 108.5L50.9998 155" stroke="white" stroke-width="2"/>
</g>
<path d="M90.881 146.874L84 154V125L101 146.874H90.881Z" fill="white" stroke="black" stroke-width="3"/>
</g>
<defs>
<clipPath id="clip0_643_32">
<rect width="160" height="160" rx="20" fill="white"/>
</clipPath>
</defs>
</svg>
