<?xml version="1.0" encoding="UTF-8" standalone="no"?>
<!-- Created with Inkscape (http://www.inkscape.org/) -->

<svg
   width="12.309475mm"
   height="6.991353mm"
   viewBox="0 0 12.309475 6.991353"
   version="1.1"
   id="svg1"
   xmlns="http://www.w3.org/2000/svg"
   xmlns:svg="http://www.w3.org/2000/svg">
  <defs
     id="defs1" />
  <g
     id="layer1"
     transform="translate(-56.498994,-123.19561)">
    <path
       style="font-family:'A-OTF TakaHand Std';-inkscape-font-specification:'A-OTF TakaHand Std';white-space:pre;stroke-width:1.00157"
       d="m 210.21303,425.60567 c -0.552,0 -0.612,0 -1.356,0.036 0.048,-0.408 0.144,-1.236 0.192,-2.616 l -0.744,-0.024 c -0.36,2.916 -0.54,4.032 -1.068,7.008 l 0.732,0.12 c 0.096,-0.36 0.288,-1.08 0.516,-2.16 0.408,0 0.948,-0.024 1.68,-0.072 v -0.744 c -0.516,-0.012 -1.02,-0.012 -1.536,0.024 0.048,-0.252 0.12,-0.744 0.12,-0.756 0.732,-0.024 0.84,-0.024 1.464,-0.084 z m -0.24,4.212 c 0.684,0.084 1.404,0.108 1.908,0.12 0.036,-0.84 0.072,-1.848 0.072,-3.36 0,-1.128 -0.012,-2.244 -0.06,-3.372 -1.008,-0.012 -1.932,0.084 -2.58,0.168 l 0.024,0.732 c 0.384,-0.012 0.96,-0.024 1.764,-0.12 -0.012,0.408 -0.024,0.96 -0.024,1.956 0,0.924 0.012,1.98 0.048,3.144 -0.444,-0.012 -0.636,-0.012 -1.08,0.024 z m 2.292,-9.528 c -1.164,0 -2.388,0.048 -3.168,0.108 0.12,-0.216 0.324,-0.6 0.756,-1.464 l -0.684,-0.312 c -0.792,1.236 -1.452,2.376 -2.124,3.78 l 0.684,0.312 c 0.144,-0.228 0.432,-0.684 0.912,-1.512 1.236,-0.024 2.232,-0.06 3.612,-0.192 z m 5.22,-0.084 c -1.452,0.012 -2.508,0.036 -3.684,0.132 0.312,-0.636 0.48,-1.008 0.588,-1.272 l -0.672,-0.3 c -0.696,1.164 -1.224,2.16 -1.8,3.516 l 0.684,0.312 c 0.444,-0.78 0.672,-1.212 0.792,-1.452 0.852,-0.012 2.688,-0.096 4.092,-0.228 z m -2.94,2.652 c -0.084,0.312 -0.516,1.812 -0.624,2.16 -0.24,0.012 -0.552,0.036 -1.344,0.132 v 0.744 c 0.384,-0.012 0.768,-0.012 1.104,-0.036 -0.348,1.176 -0.552,1.896 -1.296,3.972 l 0.672,0.24 c 0.744,-1.644 1.176,-2.928 1.56,-4.248 0.516,-0.036 1.284,-0.084 1.908,-0.132 -0.18,1.212 -0.264,1.8 -0.48,3.36 -0.492,-0.024 -0.756,-0.036 -1.248,-0.024 l -0.108,0.72 c 0.744,0.132 1.284,0.192 2.064,0.252 0.396,-1.932 0.6,-3.348 0.744,-5.1 -0.372,-0.012 -1.344,-0.024 -2.64,0.048 0.072,-0.288 0.228,-0.828 0.432,-1.968 z m -4.2,-1.356 c -0.36,0 -0.492,0.3 -0.492,0.516 0,0.288 0.216,0.624 0.6,0.624 0.252,0 0.552,-0.168 0.552,-0.516 0,-0.324 -0.264,-0.624 -0.66,-0.624 z m 4.644,-0.036 c -0.54,0 -0.624,0.396 -0.624,0.54 0,0.348 0.312,0.6 0.66,0.6 0.348,0 0.612,-0.24 0.612,-0.516 0,-0.276 -0.228,-0.624 -0.648,-0.624 z m 11.64,8.436 c 0.888,0.072 1.608,0.108 2.256,0.12 0.072,-1.656 0.108,-3.324 0.108,-4.98 0,-1.224 -0.024,-2.46 -0.06,-3.684 -1.44,-0.012 -2.88,0.012 -4.332,0.072 0.696,-1.116 1.08,-1.8 1.248,-2.076 l -0.708,-0.408 c -0.576,0.828 -1.116,1.68 -1.668,2.532 -0.768,0.024 -1.092,0.048 -2.184,0.12 v 0.792 h 0.168 c 0.48,-0.012 0.96,-0.012 1.452,-0.024 -1.008,1.62 -1.056,1.692 -1.776,2.916 l 0.636,0.372 c 0.816,-1.128 0.948,-1.32 2.136,-3.108 0.084,-0.132 0.096,-0.156 0.132,-0.204 1.344,-0.036 2.7,-0.084 4.044,-0.144 -0.06,2.304 -0.06,4.62 -0.048,6.924 -0.612,-0.036 -1.008,-0.036 -1.344,-0.036 z m -6.648,-8.868 c -0.048,1.764 -0.084,2.988 -0.084,5.076 0,1.284 0.012,2.316 0.048,3.936 h 0.768 c 0.024,-1.104 0.072,-3.12 0.072,-5.688 0,-0.66 0,-0.744 -0.036,-3.324 z m 5.112,5.724 c -0.504,0 -0.696,0.396 -0.696,0.684 0,0.528 0.564,0.876 0.96,0.876 0.384,0 0.672,-0.396 0.672,-0.66 0,-0.372 -0.384,-0.9 -0.936,-0.9 z m 2.136,-1.596 c -0.852,-0.888 -1.512,-1.488 -2.592,-2.292 l -0.516,0.516 c 0.672,0.684 1.44,1.428 2.604,2.28 z m -3.144,-0.264 c -0.984,1.092 -1.632,1.836 -2.544,2.952 l 0.588,0.516 c 0.804,-0.768 1.644,-1.632 2.58,-2.952 z m -7.752,9.924 c -0.348,0 -2.064,-0.012 -2.448,-0.012 -1.716,0.024 -3.432,0.06 -5.148,0.18 v 0.84 c 2.28,0.048 6.456,-0.072 7.596,-0.156 z m -3.252,10.224 c 2.172,-2.484 3.012,-5.028 3.684,-7.116 -0.66,-0.012 -0.936,-0.024 -1.668,-0.024 -2.316,0 -6.384,0.168 -7.14,0.264 v 0.864 c 0.504,0 4.608,-0.108 5.208,-0.12 1.212,-0.036 1.86,-0.084 2.268,-0.108 -0.78,2.112 -2.256,4.608 -3.06,5.856 z m 16.056,-6.192 c -0.468,-0.012 -1.104,-0.024 -2.004,-0.024 -2.328,0 -5.784,0.12 -7.356,0.276 v 0.816 c 1.812,0.06 9.132,-0.156 9.36,-0.18 z m 10.596,-4.296 c -1.452,2.004 -1.644,2.256 -3.312,4.44 -1.452,-1.176 -1.596,-1.284 -2.76,-2.136 l -0.576,0.624 c 0.672,0.612 0.948,0.852 2.7,2.328 -1.128,1.404 -2.112,2.472 -3.756,4.248 l 0.624,0.54 c 0.576,-0.492 2.148,-1.824 3.996,-4.08 2.196,1.74 2.712,2.136 3.42,2.616 l 0.516,-0.648 c -0.456,-0.444 -0.6,-0.564 -3.288,-2.784 0.42,-0.576 2.088,-2.868 3.156,-4.644 z m 13.44,4.14 c -2.964,1.788 -5.976,3.516 -9.132,4.944 l 0.312,0.756 c 0.972,-0.336 2.952,-1.032 5.112,-2.256 1.02,-0.588 2.748,-1.68 4.104,-2.748 z m -9,-3.12 c 0.84,0.756 2.58,2.136 3.156,2.532 l 0.564,-0.66 c -0.96,-0.96 -2.472,-2.136 -3.132,-2.52 z"
       id="text2"
       transform="matrix(0.26458333,0,0,0.26458333,1.7183313,12.435292)"
       aria-label="筋肉&#10;ラーメン" />
  </g>
</svg>
